<svg width="24" height="24" viewBox="0 0 24 24" fill="none" xmlns="http://www.w3.org/2000/svg">
<g clip-path="url(#clip0_29_15)">
<path d="M20.4844 0H3.51562C1.57709 0 0 1.57709 0 3.51562V20.4844C0 22.4229 1.57709 24 3.51562 24H20.4844C22.4229 24 24 22.4229 24 20.4844V3.51562C24 1.57709 22.4229 0 20.4844 0ZM22.5938 20.4844C22.5938 21.6475 21.6475 22.5938 20.4844 22.5938H3.51562C2.35254 22.5938 1.40625 21.6475 1.40625 20.4844V3.51562C1.40625 2.35254 2.35254 1.40625 3.51562 1.40625H20.4844C21.6475 1.40625 22.5938 2.35254 22.5938 3.51562V20.4844Z" fill="#32505B"/>
<path d="M11.2969 9.89062C11.2969 8.33972 10.0353 7.07812 8.48437 7.07812H4.26562V16.9219H8.48437C10.0353 16.9219 11.2969 15.6603 11.2969 14.1094C11.2969 13.27 10.9268 12.5158 10.3416 12C10.9268 11.4842 11.2969 10.73 11.2969 9.89062ZM9.89062 14.1094C9.89062 14.8848 9.25983 15.5156 8.48437 15.5156H5.67187V12.7031H8.48437C9.25983 12.7031 9.89062 13.3339 9.89062 14.1094ZM5.67187 11.2969V8.48438H8.48437C9.25983 8.48438 9.89062 9.11517 9.89062 9.89062C9.89062 10.6661 9.25983 11.2969 8.48437 11.2969H5.67187Z" fill="#32505B"/>
<path d="M16.2187 9.89062C14.2802 9.89062 12.7031 11.4677 12.7031 13.4062C12.7031 15.3448 14.2802 16.9219 16.2187 16.9219C17.4699 16.9219 18.6367 16.2486 19.2636 15.1646L18.0463 14.4604C17.6699 15.1113 16.9695 15.5156 16.2187 15.5156C15.3019 15.5156 14.5201 14.9279 14.2299 14.1094H19.7344V13.4062C19.7344 11.4677 18.1573 9.89062 16.2187 9.89062ZM14.2299 12.7031C14.5201 11.8846 15.3019 11.2969 16.2187 11.2969C17.1356 11.2969 17.9174 11.8846 18.2076 12.7031H14.2299Z" fill="#32505B"/>
<path d="M13.4062 7.07812H19.0313V8.48438H13.4062V7.07812Z" fill="#32505B"/>
</g>
<defs>
<clipPath id="clip0_29_15">
<rect width="24" height="24" fill="white"/>
</clipPath>
</defs>
</svg>
