<svg width="100" height="100" viewBox="0 0 100 100" fill="none" xmlns="http://www.w3.org/2000/svg">
<g clip-path="url(#clip0_34_96)">
<path d="M41.6667 71.6667V20.0001L50 11.6667V1.66675H90V11.6667L98.3333 20.0001V98.3334H71.6667L41.6667 71.6667Z" fill="#6FCF97"/>
<path d="M26 20.0001H26.6667L31.6667 6.66675H25.3333L21.6667 20.0001H26Z" fill="#83AF55"/>
<path d="M25.3333 6.66675H25H25.3333L26.6667 1.66675H20L18.3333 20.0001H21.6667L25.3333 6.66675Z" fill="#83AF55"/>
<path d="M50.8333 26.6667C55.8333 26.6667 60 30.8334 60 35.8334V40.8334C60 46.8334 64.8333 51.6667 70.8333 51.6667C76.8333 51.6667 81.6667 46.8334 81.6667 40.8334V36.6667V20.0001L90 11.6667V1.66675H83.3333V6.66675V1.66675H76.6667V6.66675V1.66675H70V6.66675V1.66675H63.3333V6.66675V1.66675H56.6667V6.66675V1.66675H50V11.6667L41.6667 20.0001H60H41.6667V35.8334C41.6667 30.8334 45.8333 26.6667 50.8333 26.6667ZM66.6667 10.0001C68.5 10.0001 70 11.5001 70 13.3334C70 15.1667 68.5 16.6667 66.6667 16.6667C64.8333 16.6667 63.3333 15.1667 63.3333 13.3334C63.3333 11.5001 64.8333 10.0001 66.6667 10.0001Z" fill="#38CEA8"/>
<path d="M15 1.66675H6.66667L13.3333 20.0001H16.6667L15 1.66675Z" fill="#83AF55"/>
<path d="M6.66667 71.6667V64.0001C6.66667 60.8334 9.16667 58.3334 12.3333 58.3334H26.6667H12.3333C9.16667 58.3334 6.66667 60.8334 6.66667 64.0001V71.6667V98.3334H36.6667V95.5001V71.6667C39.6667 69.6667 41.6667 66.3334 41.6667 62.5001C41.6667 57.1667 37.8333 52.6667 32.6667 51.8334C32.3333 51.8334 32.1667 51.6667 31.8333 51.6667C31.5 51.6667 31.1667 51.6667 30.8333 51.6667H12.5C12.1667 51.6667 11.6667 51.6667 11.3333 51.6667C11.1667 51.6667 11.1667 51.6667 11 51.6667C10.6667 51.6667 10.5 51.6667 10.1667 51.8334C10 51.8334 10 51.8334 9.83333 52.0001C9.66667 52.0001 9.33333 52.1667 9.16667 52.1667C9 52.1667 9 52.1667 8.83333 52.3334C8.66667 52.5001 8.33333 52.5001 8.16667 52.6667C8 52.6667 8 52.8334 7.83333 52.8334C7.66667 53.0001 7.33333 53.1667 7.16667 53.1667L7 53.3334C6.66667 53.5001 6.5 53.6667 6.33333 53.8334C6.33333 53.8334 6.16667 53.8334 6.16667 54.0001C5.83333 54.1668 5.66667 54.3334 5.5 54.6667C5.5 54.6667 5.5 54.6667 5.33333 54.6667C5 55.0001 4.83333 55.1667 4.5 55.5001C2.83333 57.3334 1.83333 59.8334 1.83333 62.5001C1.66667 66.3334 3.66667 69.6667 6.66667 71.6667ZM33.3333 58.3334H30H33.3333Z" fill="#EAE8CA"/>
<path d="M55 98.3333H63.6667C65.6667 98.3333 67.6667 98.1666 69.5 97.8333C68.1667 95.8333 63.3333 88.8333 63.3333 81.6666C63.3333 74.4999 67 69.8333 68 68.6666C66.6667 68.4999 65.1667 68.3333 63.6667 68.3333H60H55C49.1667 68.3333 43.1667 69.1666 37.6667 70.9999C37.3333 71.1666 37 71.4999 36.6667 71.6666V95.4999C42.5 97.3333 48.8333 98.3333 55 98.3333Z" fill="#C1DFF7"/>
<path d="M69.6667 97.8332C75.8333 96.6665 81.6667 93.9998 86.3333 89.6665L93.3333 83.3332L78.3333 86.6665L93.3333 83.3332L86.3333 76.9998C81.1667 72.3332 74.8333 69.4998 68 68.6665C67 69.8332 63.3333 74.4998 63.3333 81.6665C63.3333 88.8332 68.1667 95.8332 69.6667 97.8332ZM75 78.3332H78.3333H75Z" fill="#C1DFF7"/>
<path d="M66.6667 16.6667C68.5076 16.6667 70 15.1743 70 13.3333C70 11.4924 68.5076 10 66.6667 10C64.8257 10 63.3333 11.4924 63.3333 13.3333C63.3333 15.1743 64.8257 16.6667 66.6667 16.6667Z" fill="#6A9FD3"/>
<path d="M5.00001 54.6667C5.00001 54.6667 5.16667 54.6667 5.00001 54.6667C5.33334 54.3333 5.50001 54.1667 5.83334 54C5.83334 54 6.00001 54 6.00001 53.8333C6.16667 53.6667 6.50001 53.5 6.66667 53.3333L6.83334 53.1667C7.00001 53 7.33334 52.8333 7.50001 52.8333C7.66667 52.8333 7.66667 52.6667 7.83334 52.6667C8.00001 52.5 8.33334 52.5 8.50001 52.3333C8.66667 52.3333 8.66667 52.1667 8.83334 52.1667C9.00001 52.1667 9.33334 52 9.50001 52C9.66667 52 9.66667 52 9.83334 51.8333C10.1667 51.8333 10.3333 51.6667 10.6667 51.6667C10.8333 51.6667 10.8333 51.6667 11 51.6667C11.3333 51.6667 11.8333 51.6667 12.1667 51.6667H30.5C30.8333 51.6667 31.1667 51.6667 31.5 51.6667C31.8333 51.6667 32 51.6667 32.3333 51.8333L32.8333 45H17.1667H32.8333L34 29C34.3333 24.1667 30.5 20 25.6667 20H21.6667H18.3333H16.6667H13.3333H10.6667C5.83334 20 2.00001 24.1667 2.33334 29L2.50001 31.6667H26.6667H2.50001V32.3333L3.00001 38.3333H10H3.00001L2.50001 32.3333L4.16667 55.5C4.50001 55.1667 4.83334 54.8333 5.00001 54.6667ZM16.6667 38.3333H13.3333H16.6667Z" fill="#E8B408"/>
<path d="M60 68.3334L55 61.6667H41.6667V66.6667L38.3333 70.0001C38.3333 70.0001 53.3333 66.6667 60 68.3334Z" fill="#C1DFF7"/>
<path d="M91.6667 20H88.3333V68.3333H91.6667V20Z" fill="#222426"/>
<path d="M91.6667 11V1.66667C91.6667 0.666667 91 0 90 0H50C49 0 48.3333 0.666667 48.3333 1.66667V11L40.5 18.8333C40.1667 19.1667 40 19.5 40 20V35.8333V36.6667V54C38.5 52.3333 36.5 51.1667 34.3333 50.5L36 29C36.1667 26.1667 35.1667 23.5 33.3333 21.5C32.1667 20.1667 30.5 19.1667 28.8333 18.6667L33.1667 7.16667C33.5 6.66667 33.3333 6.16667 33 5.66667C32.6667 5.33333 32.1667 5 31.6667 5H27.5L28.3333 2.16667C28.3333 1.66667 28.3333 1 28 0.666667C27.6667 0.166667 27.1667 0 26.6667 0H20C19.1667 0 18.5 0.666667 18.3333 1.5L17.5 10.6667L16.6667 1.5C16.6667 0.666667 15.8333 0 15 0H6.66667C6.16667 0 5.66667 0.333333 5.33333 0.666667C5 1.16667 4.83333 1.66667 5.16667 2.16667L11 18.3333H10.6667C7.83333 18.3333 5.16667 19.5 3.33333 21.5C1.5 23.5 0.5 26.3333 0.666667 29L2.66667 55C1 57.1667 0 59.6667 0 62.5C0 66.5 1.83333 70.1667 5 72.5V98.3333C5 99.3333 5.66667 100 6.66667 100H36.6667C37.6667 100 38.3333 99.3333 38.3333 98.3333V97.6667C43.8333 99.1667 49.3333 100 55 100H63.6667C72.5 100 80.8333 96.8333 87.3333 90.8333L94.3333 84.5C94.6667 84.1667 94.8333 83.6667 94.8333 83.3333C94.8333 83 94.6667 82.3333 94.3333 82.1667L87.3333 75.8333C80.8333 70 72.3333 66.6667 63.6667 66.6667H60.8333L56.3333 60.6667C56 60.1667 55.5 60 55 60H43.3333V36.6667V35.8333C43.3333 31.6667 46.6667 28.3333 50.8333 28.3333C55 28.3333 58.3333 31.6667 58.3333 35.8333V40.8333C58.3333 47.6667 64 53.3333 70.8333 53.3333C74.5 53.3333 77.6667 51.8333 80 49.3333V68.3333H83.3333V40.8333V36.6667V20.6667L90 14L96.6667 20.6667V96.6667H81.6667V100H98.3333C99.3333 100 100 99.3333 100 98.3333V20C100 19.5 99.8333 19.1667 99.5 18.8333L91.6667 11ZM29.3333 8.33333L25.5 18.3333H23.8333L26.5 8.33333H29.3333ZM24.5 3.33333L20.3333 18.3333H20.1667L21.5 3.33333H24.5ZM9 3.33333H13.5L14.8333 18.3333H14.5L9 3.33333ZM5.83333 23.8333C7 22.5 8.83333 21.6667 10.6667 21.6667H13.3333H18.3333H21.6667H26C27.8333 21.6667 29.6667 22.5 30.8333 23.8333C32.1667 25.1667 32.6667 27 32.6667 28.8333L31.6667 43.3333H17.6667V46.6667H31.5L31.3333 50C31.1667 50 31.1667 50 31 50H12.6667C12.1667 50 11.5 50 11 50.1667C10.8333 50.1667 10.6667 50.1667 10.6667 50.1667C10.1667 50.1667 9.66667 50.3333 9.16667 50.5H9C8.5 50.6667 8 50.8333 7.5 51C7.33333 51 7.33333 51.1667 7.16667 51.1667C6.66667 51.5 6.33333 51.6667 5.83333 52H5.66667L4.83333 40H10V36.6667H4.5L4.33333 33.3333H26.6667V30H4L3.83333 28.8333C3.83333 27 4.5 25.1667 5.83333 23.8333ZM35 96.6667H8.33333V71.6667V64C8.33333 61.8333 10.1667 60 12.3333 60H26.6667V56.6667H12.3333C8.33333 56.6667 5 60 5 64V67.6667C4 66.1667 3.33333 64.3333 3.33333 62.3333C3.33333 60 4.16667 57.8333 5.66667 56.3333C5.83333 56.1667 6 56 6.16667 55.6667L6.33333 55.5C6.5 55.3333 6.66667 55.1667 6.83333 55L7 54.8333C7.16667 54.6667 7.33333 54.5 7.5 54.5L7.66667 54.3333C7.83333 54.1667 8 54.1667 8.33333 54C8.33333 54 8.5 54 8.5 53.8333C8.66667 53.6667 9 53.6667 9.16667 53.5H9.33333C9.5 53.5 9.83333 53.3333 10 53.3333H10.1667C10.5 53.3333 10.6667 53.1667 11 53.1667H11.1667C11.5 53.1667 11.8333 53.1667 12.1667 53.1667H30.5C31 53.1667 31.5 53.1667 32 53.3333C36.3333 54 39.6667 57.8333 39.6667 62.3333C39.6667 65.1667 38.3333 67.6667 36.1667 69.5C36 69.6667 36 69.6667 35.8333 69.8333C35.6667 70 35.5 70 35.5 70.1667C35.3333 70.5 35 71 35 71.6667V95.5V96.6667ZM89.8333 82.3333L78 85L78.6667 88.3333L87.5 86.3333L85.1667 88.3333C81 92.1667 75.8333 94.6667 70.3333 95.8333C68.5 93.3333 65 87.5 65 81.6667C65 76.1667 67.5 72.1667 68.8333 70.5C75 71.5 80.6667 74.1667 85.3333 78.3333L89.8333 82.3333ZM65 70C63.5 72.5 61.6667 76.5 61.6667 81.6667C61.6667 87.5 64.6667 93.1667 66.6667 96.5C65.6667 96.6667 64.6667 96.6667 63.6667 96.6667H55C49.3333 96.6667 43.8333 95.8333 38.3333 94.1667V72.5C43.6667 70.8333 49.3333 70 55 70H63.6667C64.1667 70 64.5 70 65 70ZM56.6667 66.6667H55C50.6667 66.6667 46.3333 67.1667 42 68C42.6667 66.6667 43.1667 65 43.3333 63.3333H54.1667L56.6667 66.6667ZM80.5 18.8333C80.1667 19.1667 80 19.5 80 20V36.6667V40.8333C80 45.8333 75.8333 50 70.8333 50C65.8333 50 61.6667 45.8333 61.6667 40.8333V35.8333C61.6667 29.8333 56.8333 25 50.8333 25C48 25 45.3333 26.1667 43.3333 28V21.6667H60V18.3333H45.6667L51.1667 12.8333C51.5 12.5 51.6667 12.1667 51.6667 11.6667V3.33333H55V6.66667H58.3333V3.33333H61.6667V6.66667H65V3.33333H68.3333V6.66667H71.6667V3.33333H75V6.66667H78.3333V3.33333H81.6667V6.66667H85V3.33333H88.3333V11L80.5 18.8333Z" fill="#222426"/>
<path d="M33.3333 56.6667H30V60.0001H33.3333V56.6667Z" fill="#222426"/>
<path d="M78.3333 76.6667H75V80.0001H78.3333V76.6667Z" fill="#222426"/>
<path d="M66.6667 8.33325C63.8333 8.33325 61.6667 10.4999 61.6667 13.3333C61.6667 16.1666 63.8333 18.3333 66.6667 18.3333C69.5 18.3333 71.6667 16.1666 71.6667 13.3333C71.6667 10.4999 69.5 8.33325 66.6667 8.33325ZM66.6667 14.9999C65.6667 14.9999 65 14.3333 65 13.3333C65 12.3333 65.6667 11.6666 66.6667 11.6666C67.6667 11.6666 68.3333 12.3333 68.3333 13.3333C68.3333 14.3333 67.6667 14.9999 66.6667 14.9999Z" fill="#222426"/>
<path d="M16.6667 36.6667H13.3333V40.0001H16.6667V36.6667Z" fill="#222426"/>
</g>
<defs>
<clipPath id="clip0_34_96">
<rect width="100" height="100" fill="white"/>
</clipPath>
</defs>
</svg>
