<svg width="100" height="100" viewBox="0 0 100 100" fill="none" xmlns="http://www.w3.org/2000/svg">
<g clip-path="url(#clip0_34_2)">
<path d="M66.669 28.3334C66.6856 28.3334 66.7006 28.3334 66.7173 28.3334C74.0806 28.3334 80.0506 22.3634 80.0506 15.0001C80.0506 7.63675 74.0806 1.66675 66.7173 1.66675H60.0023V71.6667H66.669H69.2423C71.5306 71.6667 73.384 73.5217 73.384 75.8084V94.1901C73.384 96.4784 75.239 98.3317 77.5256 98.3317H79.2406C81.529 98.3317 83.3823 96.4767 83.3823 94.1901V51.6667C83.3823 47.9767 87.844 46.1284 90.454 48.7384C92.0723 50.3567 94.694 50.3567 96.3123 48.7384L97.1206 47.9301C98.739 46.3117 98.739 43.6901 97.1206 42.0717L95.169 40.1184C87.624 32.5734 77.389 28.3334 66.7173 28.3334" fill="#38CEA8"/>
<path d="M6.66895 98.3334H50.0023C52.7639 98.3334 55.0023 96.0951 55.0023 93.3334V86.6667H1.66895V93.3334C1.66895 96.0951 3.90728 98.3334 6.66895 98.3334ZM33.3356 93.3334H23.3356H33.3356Z" fill="#6A9FD3"/>
<path d="M55.0023 6.66675C55.0023 3.90508 52.7639 1.66675 50.0023 1.66675H6.66895C3.90728 1.66675 1.66895 3.90508 1.66895 6.66675V13.3334H55.0023V6.66675Z" fill="#6A9FD3"/>
<path d="M55.0023 63.3332H28.3356V58.3332C18.2106 58.3332 10.0023 50.1249 10.0023 39.9999C10.0023 29.8749 18.2106 21.6666 28.3356 21.6666C38.4606 21.6666 46.6689 29.8749 46.6689 39.9999C46.6689 50.1249 38.4606 58.3332 28.3356 58.3332V63.3332H55.0023V13.3333H1.66895V86.6666H55.0023V63.3332ZM7.00228 53.3332C10.0373 59.2682 16.2123 63.3332 23.3356 63.3332C16.2106 63.3332 10.0356 59.2699 7.00228 53.3332ZM26.6689 76.6666H35.0023H26.6689ZM38.3356 76.6666H50.0023H38.3356ZM26.6689 69.9999H50.0023H26.6689Z" fill="#38CEA8"/>
<path d="M76.504 39.8351C75.6306 38.9617 74.2623 38.8267 73.2356 39.5117L71.439 40.7084C70.569 41.2884 69.4356 41.2884 68.5656 40.7084L66.769 39.5117C65.7423 38.8267 64.374 38.9617 63.5006 39.8351C62.489 40.8467 62.489 42.4867 63.5006 43.4984L68.1706 48.1684C69.1823 49.1801 70.8223 49.1801 71.834 48.1684L76.504 43.4984C77.5156 42.4867 77.5156 40.8467 76.504 39.8351Z" fill="#E8B408"/>
<path d="M28.3356 58.3334C38.4608 58.3334 46.669 50.1253 46.669 40.0001C46.669 29.8749 38.4608 21.6667 28.3356 21.6667C18.2104 21.6667 10.0023 29.8749 10.0023 40.0001C10.0023 50.1253 18.2104 58.3334 28.3356 58.3334Z" fill="#E8B408"/>
<path d="M6.66896 100H50.0023C53.679 100 56.669 97.01 56.669 93.3333V65H70.0023C70.9223 65 71.669 64.2533 71.669 63.3333V58.3333H68.3356V61.6667H56.669V6.66667C56.669 2.99 53.679 0 50.0023 0H6.66896C2.99229 0 0.00228882 2.99 0.00228882 6.66667V93.3333C0.00228882 97.01 2.99229 100 6.66896 100ZM50.0023 96.6667H6.66896C4.83062 96.6667 3.33562 95.1717 3.33562 93.3333V88.3333H53.3356V93.3333C53.3356 95.1717 51.8406 96.6667 50.0023 96.6667ZM28.3356 56.6667C19.1456 56.6667 11.669 49.19 11.669 40C11.669 30.81 19.1456 23.3333 28.3356 23.3333C37.5256 23.3333 45.0023 30.81 45.0023 40C45.0023 49.19 37.5256 56.6667 28.3356 56.6667ZM30.0023 59.915C40.2506 59.0633 48.3356 50.465 48.3356 40C48.3356 28.9717 39.364 20 28.3356 20C17.3073 20 8.33562 28.9717 8.33562 40C8.33562 50.465 16.4206 59.0633 26.669 59.915V63.3333C26.669 64.2533 27.4156 65 28.3356 65H53.3356V85H3.33562V15H53.3356V61.6667H30.0023V59.915ZM6.66896 3.33333H50.0023C51.8406 3.33333 53.3356 4.82833 53.3356 6.66667V11.6667H3.33562V6.66667C3.33562 4.82833 4.83062 3.33333 6.66896 3.33333Z" fill="#222426"/>
<path d="M78.384 15C78.384 21.4333 73.1507 26.6667 66.7173 26.6667H66.669L66.7173 30C77.0207 30 86.7056 34.0117 93.9906 41.2967L95.9423 43.2483C96.9073 44.2133 96.9073 45.7833 95.9423 46.75L95.1323 47.5583C94.199 48.495 92.569 48.4967 91.6323 47.5583C89.9423 45.865 87.5156 45.385 85.3023 46.2983C83.0906 47.215 81.7156 49.2717 81.7156 51.665V94.19C81.7156 95.555 80.604 96.665 79.2407 96.665H77.5256C76.1606 96.665 75.0507 95.5533 75.0507 94.19V75.8083C75.0507 72.605 72.4457 70 69.2423 70H60.0023V73.3333H69.2423C70.6073 73.3333 71.7173 74.445 71.7173 75.8083V94.19C71.7173 97.3933 74.3223 99.9983 77.5256 99.9983H79.2407C82.444 99.9983 85.049 97.3933 85.049 94.19V51.6667C85.049 50.63 85.6206 49.775 86.5773 49.3783C87.5356 48.9817 88.5423 49.1817 89.2756 49.915C91.4706 52.1083 95.299 52.1083 97.4906 49.915L98.299 49.1067C100.564 46.8417 100.564 43.1567 98.299 40.8917L96.3473 38.94C90.4256 33.0183 83.044 29.0883 75.0157 27.485C79.0507 24.7933 81.7173 20.2033 81.7173 15C81.7173 6.73 74.9873 0 66.7173 0H60.0023V3.33333H66.7173C73.1507 3.33333 78.384 8.56667 78.384 15Z" fill="#222426"/>
<path d="M77.6823 38.6567C76.254 37.2267 73.9956 37.0033 72.3106 38.125L70.514 39.3233C70.2023 39.53 69.8006 39.53 69.489 39.3233L67.6923 38.125C66.0106 37.005 63.7506 37.2267 62.3206 38.6567C60.6606 40.3167 60.6606 43.0167 62.3206 44.6767L66.9906 49.3467C67.8206 50.1767 68.9106 50.5917 70.0006 50.5917C71.0906 50.5917 72.1806 50.1767 73.0106 49.3467L77.6806 44.6767C79.3423 43.0167 79.3423 40.3167 77.6823 38.6567ZM75.3256 42.32L70.6556 46.99C70.294 47.35 69.7106 47.35 69.349 46.99L64.679 42.32C64.319 41.96 64.319 41.3733 64.679 41.0133C64.8573 40.835 65.0956 40.7433 65.334 40.7433C65.5106 40.7433 65.689 40.795 65.8456 40.8983L67.6423 42.0967C69.0773 43.0533 70.9323 43.0517 72.3656 42.0967L74.1623 40.8983C74.5273 40.6567 75.0173 40.7033 75.3273 41.0133C75.6856 41.3733 75.6856 41.96 75.3256 42.32Z" fill="#222426"/>
<path d="M41.669 40.0001H34.8073L33.3223 28.1267C33.219 27.3051 32.5306 26.6834 31.7023 26.6667C31.6906 26.6667 31.679 26.6667 31.6673 26.6667C30.8556 26.6667 30.159 27.2551 30.024 28.0584L28.009 40.1551L26.619 34.5951C26.4623 33.9717 25.9623 33.4934 25.3323 33.3667C24.7023 33.2351 24.054 33.4867 23.669 34.0001L19.169 40.0001H15.0023V43.3334H20.0023C20.5273 43.3334 21.0206 43.0867 21.3356 42.6667L24.2356 38.8017L26.719 48.7384C26.9056 49.4817 27.5723 50.0001 28.3356 50.0001C28.359 50.0001 28.3806 50.0001 28.404 49.9984C29.1923 49.9667 29.8523 49.3867 29.9806 48.6084L31.434 39.8867L31.6823 41.8751C31.7856 42.7084 32.4956 43.3334 33.3356 43.3334H41.669V40.0001Z" fill="#222426"/>
<path d="M50.0023 68.3333H26.6689V71.6666H50.0023V68.3333Z" fill="#222426"/>
<path d="M35.0023 75H26.6689V78.3333H35.0023V75Z" fill="#222426"/>
<path d="M50.0023 75H38.3356V78.3333H50.0023V75Z" fill="#222426"/>
<path d="M23.3356 65V61.6666C17.0423 61.6666 11.3523 58.1833 8.48564 52.575L5.5173 54.0916C8.9573 60.82 15.784 65 23.3356 65Z" fill="#222426"/>
<path d="M33.3356 91.6667H23.3356V95.0001H33.3356V91.6667Z" fill="#222426"/>
</g>
<defs>
<clipPath id="clip0_34_2">
<rect width="100" height="100" fill="white"/>
</clipPath>
</defs>
</svg>
