<svg width="24" height="23" viewBox="0 0 24 23" fill="none" xmlns="http://www.w3.org/2000/svg">
<path d="M13.1583 0.720526L15.8652 6.20538C16.0534 6.58686 16.4174 6.85119 16.8384 6.91226L22.8914 7.79186C23.9518 7.94606 24.3748 9.24868 23.6078 9.99612L19.2279 14.2655C18.9235 14.5623 18.7843 14.9904 18.8564 15.4094L19.8902 21.4379C20.0714 22.4937 18.963 23.2987 18.0148 22.8006L12.6011 19.9546C12.2246 19.7568 11.7745 19.7568 11.3981 19.9546L5.98431 22.8006C5.03612 23.2992 3.92774 22.4937 4.10897 21.4379L5.14276 15.4094C5.21485 14.9904 5.07567 14.5623 4.77129 14.2655L0.391319 9.99612C-0.37564 9.24819 0.0473888 7.94556 1.10771 7.79186L7.16078 6.91226C7.58181 6.85119 7.94576 6.58686 8.134 6.20538L10.8409 0.720526C11.3145 -0.240175 12.6842 -0.240175 13.1583 0.720526Z" fill="#ED8A19"/>
</svg>
