<svg width="24" height="24" viewBox="0 0 24 24" fill="none" xmlns="http://www.w3.org/2000/svg">
<g clip-path="url(#clip0_29_11)">
<path d="M9.132 21.9239C5.12639 21.9239 1.9605 21.224 0.445851 20.0042L0.416371 19.9804L0.389638 19.9536C0.0298359 19.5937 -0.088084 19.1214 0.0664569 18.6582L0.080556 18.6197C0.268056 18.1508 0.727467 17.8351 1.22533 17.8322C2.24999 17.8144 3.14647 17.6923 3.96001 17.4552C2.66234 16.8517 1.76091 15.8067 1.2246 14.2942C1.04424 13.8225 1.19988 13.2996 1.61553 12.9878C1.71807 12.9107 1.83397 12.8524 1.95665 12.8134C1.23558 11.981 0.702931 11.0338 0.404652 10.0321L0.395314 10.0009L0.388905 9.96908C0.287648 9.46243 0.514149 8.9415 0.929249 8.71719C1.10338 8.61722 1.29253 8.5654 1.48241 8.561C1.2777 8.12008 1.12883 7.66745 1.04058 7.21206C0.795582 5.9501 0.99773 4.68503 1.64116 3.45199L1.79003 3.15426C1.90923 2.91604 2.13701 2.74868 2.39958 2.70602C2.66216 2.66354 2.93132 2.75033 3.11937 2.93838L3.39055 3.20993C5.53288 5.4559 7.45183 6.52157 10.7695 7.2507C10.9176 5.9772 11.4682 4.79342 12.3565 3.86178C13.4136 2.75326 14.8251 2.13125 16.3312 2.11001H16.341C17.4399 2.11001 18.8029 2.73733 19.6272 3.17972C20.3344 2.94827 21.1864 2.58993 22.0704 2.21109C22.484 2.017 22.994 2.1058 23.3192 2.431C23.638 2.74978 23.7264 3.19931 23.5572 3.6362C23.493 3.81509 23.4201 3.99069 23.339 4.16244C23.46 4.21792 23.5708 4.29318 23.6643 4.38675C23.9472 4.66964 24.0652 5.11239 23.9646 5.51486L23.9538 5.55313C23.6151 6.6448 22.9643 7.53396 22.1037 8.09207C21.96 15.7461 16.1962 21.9239 9.132 21.9239V21.9239ZM1.79552 19.2203C3.22283 20.0278 5.94286 20.5163 9.132 20.5163C12.1981 20.5163 15.0915 19.2 17.2791 16.8097C19.4846 14.3999 20.6991 11.1997 20.6991 7.79873V7.76046C20.6991 7.45248 20.8687 7.17141 21.1415 7.02676C21.695 6.73361 22.1433 6.23428 22.4348 5.59579C22.1341 5.64322 21.8285 5.52255 21.6412 5.27096C21.4235 4.97854 21.4211 4.58358 21.6352 4.2886C21.7507 4.1293 21.8554 3.96359 21.9488 3.7922C21.1855 4.11282 20.4605 4.4003 19.8312 4.59128C19.6025 4.66049 19.3476 4.63339 19.1387 4.51675C18.0183 3.89254 16.9748 3.51938 16.3456 3.51754C14.024 3.55307 12.1364 5.54141 12.1364 7.95218C12.1364 8.20138 12.0258 8.43503 11.8334 8.59341C11.6407 8.75161 11.3902 8.81497 11.1456 8.76663C7.32017 8.01297 5.05333 6.88284 2.69603 4.514C2.3582 5.32351 2.26592 6.13888 2.42211 6.944C2.58049 7.75955 3.00182 8.57675 3.64067 9.30716C3.88347 9.58438 3.9157 9.98098 3.72087 10.2939C3.52678 10.6057 3.15782 10.7515 2.80315 10.6565C2.52593 10.5821 2.27104 10.4845 2.02935 10.3591C2.52172 11.4286 3.36858 12.4178 4.43315 13.1472C4.74169 13.3587 4.87059 13.753 4.74681 14.106C4.62285 14.4596 4.2766 14.6872 3.90233 14.6593C3.49455 14.6291 3.13329 14.5517 2.80077 14.4211C3.39769 15.6367 4.35149 16.3056 5.82091 16.5612C6.17082 16.6222 6.44328 16.8985 6.49895 17.2488C6.55479 17.5991 6.38139 17.9463 6.06773 18.1127C4.81529 18.7766 3.4464 19.133 1.79552 19.2203V19.2203Z" fill="#32505B"/>
</g>
<defs>
<clipPath id="clip0_29_11">
<rect width="24" height="24" fill="white"/>
</clipPath>
</defs>
</svg>
