<svg width="100" height="100" viewBox="0 0 100 100" fill="none" xmlns="http://www.w3.org/2000/svg">
<g clip-path="url(#clip0_34_68)">
<path d="M88.3334 1.66675H11.6667C6.14335 1.66675 1.66669 6.14341 1.66669 11.6667V88.3334C1.66669 93.8568 6.14335 98.3334 11.6667 98.3334H88.3334C93.8567 98.3334 98.3334 93.8568 98.3334 88.3334V11.6667C98.3334 6.14341 93.8567 1.66675 88.3334 1.66675ZM23.3334 28.3334V10.0001C23.3334 9.08008 24.08 8.33342 25 8.33342H75C75.92 8.33342 76.6667 9.08008 76.6667 10.0001V28.3334V31.6667C76.6667 32.5868 75.92 33.3334 75 33.3334H50H25C24.08 33.3334 23.3334 32.5868 23.3334 31.6667V28.3334ZM93.3334 85.0001C93.3334 89.6018 89.6017 93.3334 85 93.3334H15C10.3984 93.3334 6.66669 89.6018 6.66669 85.0001V15.0001C6.66669 10.3984 10.3984 6.66675 15 6.66675H18.3334V36.6667C18.3334 37.5868 19.08 38.3334 20 38.3334H80C80.92 38.3334 81.6667 37.5868 81.6667 36.6667V6.66675H85C89.6017 6.66675 93.3334 10.3984 93.3334 15.0001V85.0001Z" fill="#6A9FD3"/>
<path d="M75 8.33325H25C24.08 8.33325 23.3333 9.07992 23.3333 9.99992V28.3333V31.6666C23.3333 32.5866 24.08 33.3333 25 33.3333H50H75C75.92 33.3333 76.6666 32.5866 76.6666 31.6666V28.3333V9.99992C76.6666 9.07992 75.92 8.33325 75 8.33325Z" fill="#E8B408"/>
<path d="M85 6.66675H81.6667V36.6667C81.6667 37.5868 80.92 38.3334 80 38.3334H20C19.08 38.3334 18.3334 37.5868 18.3334 36.6667V6.66675H15C10.3984 6.66675 6.66669 10.3984 6.66669 15.0001V85.0001C6.66669 89.6018 10.3984 93.3334 15 93.3334H85C89.6017 93.3334 93.3334 89.6018 93.3334 85.0001V15.0001C93.3334 10.3984 89.6017 6.66675 85 6.66675Z" fill="#38CEA8"/>
<path d="M88.3333 0H11.6667C5.235 0 0 5.23333 0 11.6667V88.3333C0 94.7667 5.235 100 11.6667 100H88.3333C94.765 100 100 94.7667 100 88.3333V11.6667C100 5.23333 94.765 0 88.3333 0ZM96.6667 88.3333C96.6667 92.9283 92.9283 96.6667 88.3333 96.6667H11.6667C7.07167 96.6667 3.33333 92.9283 3.33333 88.3333V11.6667C3.33333 7.07167 7.07167 3.33333 11.6667 3.33333H88.3333C92.9283 3.33333 96.6667 7.07167 96.6667 11.6667V88.3333Z" fill="#222426"/>
<path d="M25 35.0001H75C76.8384 35.0001 78.3334 33.5051 78.3334 31.6667V10.0001C78.3334 8.16175 76.8384 6.66675 75 6.66675H25C23.1617 6.66675 21.6667 8.16175 21.6667 10.0001V31.6667C21.6667 33.5051 23.1617 35.0001 25 35.0001ZM50.8017 31.6667L44.635 23.9584L42.03 26.0401L46.53 31.6651H25V29.1317C27.4734 27.2151 37.6067 19.9984 50 19.9984C62.3617 19.9984 72.525 27.2201 75.0017 29.1351V31.6651H50.8017V31.6667ZM75 10.0001L75.0017 25.0084C70.5867 21.9717 61.27 16.6667 50 16.6667C38.73 16.6667 29.415 21.9717 25 25.0067V10.0001H75Z" fill="#222426"/>
<path d="M85 5H81.6667C80.745 5 80 5.74667 80 6.66667V36.6667H20V6.66667C20 5.74667 19.255 5 18.3333 5H15C9.485 5 5 9.485 5 15V85C5 90.515 9.485 95 15 95H85C90.515 95 95 90.515 95 85V15C95 9.485 90.515 5 85 5ZM91.6667 85C91.6667 88.6767 88.6767 91.6667 85 91.6667H15C11.3233 91.6667 8.33333 88.6767 8.33333 85V15C8.33333 11.3233 11.3233 8.33333 15 8.33333H16.6667V36.6667C16.6667 38.505 18.1617 40 20 40H80C81.8383 40 83.3333 38.505 83.3333 36.6667V8.33333H85C88.6767 8.33333 91.6667 11.3233 91.6667 15V85Z" fill="#222426"/>
<path d="M51.6666 11.6667H48.3333V15.0001H51.6666V11.6667Z" fill="#222426"/>
<path d="M63.3333 13.3333H60V16.6666H63.3333V13.3333Z" fill="#222426"/>
<path d="M73.3333 16.6667H70V20.0001H73.3333V16.6667Z" fill="#222426"/>
<path d="M40 13.3333H36.6667V16.6666H40V13.3333Z" fill="#222426"/>
<path d="M30 16.6667H26.6667V20.0001H30V16.6667Z" fill="#222426"/>
</g>
<defs>
<clipPath id="clip0_34_68">
<rect width="100" height="100" fill="white"/>
</clipPath>
</defs>
</svg>
