<svg width="100" height="100" viewBox="0 0 100 100" fill="none" xmlns="http://www.w3.org/2000/svg">
<path d="M44.0966 51.6099L54.074 49.4481V44.2932C52.4111 43.7943 50.7482 43.4617 49.0853 43.4617V36.3113C48.2539 36.6439 47.5887 36.8101 46.7573 36.9764H46.591C46.2584 36.9764 45.7595 37.1427 45.4269 37.1427H45.2606C44.4292 37.1427 43.764 37.1427 42.9326 37.1427H42.7663C42.4337 37.1427 41.9349 36.9764 41.6023 36.9764H41.436C40.6045 36.8101 39.9394 36.4776 39.1079 36.3113V43.2954C37.445 43.2954 35.7822 43.628 34.1193 44.1269V49.2818L44.0966 51.6099Z" fill="#EAE8CA"/>
<path d="M41.6023 36.9764C41.9349 36.9764 42.4338 37.1427 42.7663 37.1427H42.9326C43.7641 37.1427 44.4292 37.1427 45.2607 37.1427H45.427C45.7595 37.1427 46.2584 36.9764 46.591 36.9764H46.7573C47.5887 36.8101 48.2539 36.4775 49.0853 36.3112C49.7505 35.9786 50.5819 35.6461 51.2471 35.1472C57.2335 30.99 60.7256 27.4979 60.7256 20.1811V19.3497L49.0853 13.3633L27.4677 17.1879C27.4677 17.5205 27.4677 18.0194 27.4677 18.352V20.0149C27.4677 20.8463 27.4677 21.6778 27.634 22.5092C27.634 22.8418 27.8003 23.1744 27.8003 23.5069C27.8003 23.8395 27.9666 24.3384 28.1329 24.671C28.2992 25.0035 28.4654 25.3361 28.4654 25.835C28.6317 26.1676 28.6317 26.3339 28.798 26.6664C28.9643 26.999 29.1306 27.4979 29.4632 27.8305C29.6295 27.9967 29.6295 28.3293 29.7958 28.4956C30.1283 28.8282 30.2946 29.3271 30.6272 29.6596C30.7935 29.8259 30.9598 29.9922 30.9598 30.1585C31.2924 30.4911 31.6249 30.99 32.1238 31.3225C32.2901 31.4888 32.4564 31.6551 32.4564 31.6551C32.9553 31.9877 33.2878 32.4866 33.7867 32.8191C33.953 32.8191 33.953 32.9854 34.1193 32.9854C34.6182 33.4843 35.2833 33.8169 35.9485 34.3157C36.281 34.482 36.6136 34.8146 36.7799 34.9809C37.4451 35.4798 38.1102 35.8124 38.9417 36.1449C39.7731 36.4775 40.4383 36.6438 41.2697 36.8101C41.436 36.9764 41.6023 36.9764 41.6023 36.9764Z" fill="#EAE8CA"/>
<path d="M60.7256 45.9559C58.7301 44.9582 56.5683 44.293 54.074 43.9604V44.293V49.448L44.0966 51.6098L34.1193 49.448V44.293V43.9604C31.6249 44.293 29.4632 45.1245 27.4677 45.9559V46.6211V61.2546C27.4677 63.25 29.6295 64.9129 32.4564 64.9129H55.7369C58.5638 64.9129 60.7256 63.25 60.7256 61.2546V59.9242V48.284V45.9559Z" fill="#38CEA8"/>
<path d="M27.4677 61.5871V61.2546V46.6211C21.315 52.6075 17.4904 63.0837 17.4904 71.5645C17.4904 75.5554 17.6566 84.0362 20.3173 86.5305H25.8048L25.306 83.8699C24.6408 79.0475 25.306 65.9107 27.4677 61.5871Z" fill="#EAE8CA"/>
<path d="M78.8511 28.3292H79.0174H78.8511L77.8534 43.7941C77.6871 46.2885 75.5253 48.2839 72.8647 48.2839H60.7256V59.9242L80.0152 55.767C82.3432 55.2681 84.0061 53.2726 84.0061 50.9446V25.0034H79.0174L78.8511 28.3292Z" fill="#EAE8CA"/>
<path d="M65.7142 23.3406V33.3179H72.3658V28.3293V23.3406H65.7142Z" fill="#6A9FD3"/>
<path d="M93.9834 23.3406H87.3318V33.3179H93.9834V23.3406Z" fill="#6A9FD3"/>
<path d="M33.6204 5.38126C32.789 6.04642 31.9575 6.87787 31.1261 7.87561C31.1261 8.04189 30.9598 8.04189 30.9598 8.20818C30.6272 8.54076 30.4609 8.87334 30.1283 9.20592C29.9621 9.37221 29.9621 9.5385 29.7958 9.70479C29.6295 10.0374 29.4632 10.3699 29.2969 10.7025C29.1306 10.8688 29.1306 11.0351 28.9643 11.3677C28.798 11.7003 28.798 11.8666 28.6317 12.1991C28.6317 12.3654 28.4654 12.5317 28.4654 12.698V12.8643C28.2992 13.1969 28.2992 13.5294 28.1329 13.6957C28.1329 13.862 27.9666 14.0283 27.9666 14.1946C27.8003 14.5272 27.8003 14.8598 27.8003 15.3586C27.8003 15.5249 27.8003 15.6912 27.634 15.8575C27.634 16.1901 27.4677 16.6889 27.4677 17.0215V17.1878L49.0853 13.3632L60.7256 19.1833V18.3518C60.7256 8.87334 52.7437 1.05774 42.9326 1.7229C42.4338 1.7229 41.9349 1.88919 41.2697 1.88919C41.1034 1.88919 40.9371 1.88919 40.7709 2.05548C40.4383 2.05548 40.1057 2.22177 39.7731 2.22177C39.6068 2.22177 39.2743 2.38806 39.108 2.38806C38.7754 2.38806 38.6091 2.55434 38.2765 2.72063C38.1102 2.88692 37.7777 2.88692 37.6114 3.05321C37.4451 3.2195 37.1125 3.2195 36.9462 3.38579C36.7799 3.55208 36.4473 3.55208 36.281 3.71837C36.1148 3.88466 35.9485 3.88466 35.6159 4.05095C35.2833 4.21724 35.117 4.38353 34.9507 4.54982C34.7844 4.71611 34.6182 4.71611 34.4519 4.8824C34.1193 4.8824 33.953 5.21498 33.6204 5.38126Z" fill="#E8B408"/>
<path d="M5.8501 81.5417V91.5191H12.5017V86.5304V81.5417H5.8501Z" fill="#6A9FD3"/>
<path d="M30.7935 64.9128C32.9552 70.2341 32.9552 76.2205 30.7935 81.5418H34.1192V83.2047H57.3998L56.7346 81.0429C55.0717 76.0542 55.238 70.5667 57.2335 65.578L57.3998 64.9128H55.7369H32.4564H30.7935Z" fill="#EAE8CA"/>
<path d="M33.953 32.6529C33.4541 32.3203 32.9552 31.8214 32.6226 31.4888C32.4563 31.3226 32.2901 31.1563 32.2901 31.1563C31.9575 30.8237 31.4586 30.4911 31.126 29.9922C30.9597 29.8259 30.7935 29.6597 30.7935 29.4934C30.4609 29.1608 30.1283 28.8282 29.962 28.3293C29.7957 28.1631 29.6294 27.8305 29.6294 27.6642C29.4631 27.3316 29.1306 26.999 28.9643 26.5002C28.798 26.1676 28.798 26.0013 28.6317 25.6687C28.4654 25.3361 28.2991 25.0036 28.2991 24.5047C28.1328 24.1721 28.1328 23.6732 27.9665 23.3407C27.9665 23.0081 27.8002 22.6755 27.8002 22.3429C27.4677 21.8441 27.4677 21.0126 27.4677 20.0149V18.352C27.4677 18.0194 27.4677 17.5205 27.4677 17.188C27.4677 17.0217 27.4677 16.6891 27.4677 16.5228C27.4677 16.3565 27.4677 16.1902 27.4677 16.0239C27.4677 15.8576 27.4677 15.8576 27.4677 15.6913C27.4677 15.3588 27.634 15.1925 27.634 14.8599C27.634 14.6936 27.8002 14.5273 27.8002 14.361C27.8002 14.361 27.8002 14.361 27.8002 14.1947C27.9665 13.8622 27.9665 13.5296 28.1328 13.0307C28.1328 12.8644 28.2991 12.6981 28.2991 12.5319C28.4654 12.1993 28.6317 11.8667 28.798 11.3678C28.798 11.3678 28.798 11.2015 28.9643 11.2015C28.9643 11.2015 28.9643 11.0352 29.1306 11.0352C29.2969 10.7027 29.4631 10.5364 29.6294 10.2038L29.7957 10.0375C29.962 9.70493 30.1283 9.37235 30.4609 9.03977C30.4609 8.87348 30.6272 8.87348 30.6272 8.7072C30.7935 8.37462 30.9597 8.04204 31.2923 7.70946C31.4586 7.54317 31.4586 7.54317 31.6249 7.37688C31.7912 7.0443 32.1238 6.87801 32.2901 6.54543L32.4563 6.37914C32.6226 6.21285 32.9552 5.88028 33.1215 5.71399C33.2878 5.5477 33.2878 5.5477 33.4541 5.38141C32.6226 5.21512 31.7912 5.04883 30.7935 5.04883C24.3082 5.04883 19.1532 10.2038 19.1532 16.6891V41.6325C25.8048 41.6325 31.7912 38.8056 36.1147 34.3158C35.4496 33.8169 34.9507 33.4843 34.2855 32.9854C34.1192 32.8192 34.1192 32.8192 33.953 32.6529Z" fill="#E8B408"/>
<path d="M22.479 99.8338C22.479 94.5125 24.3082 87.3621 27.634 83.2048H57.3998L58.8964 85.034C62.2222 89.1912 64.0513 94.5125 64.0513 99.8338H22.479Z" fill="#38CEA8"/>
<path d="M93.9835 21.6776H87.3319C86.3342 21.6776 85.669 22.3428 85.669 23.3405V25.0034C85.669 24.0056 85.0038 23.3405 84.0061 23.3405H79.0174C78.186 23.3405 77.3545 24.0056 77.3545 24.8371L77.1882 26.6663H74.0287V23.3405C74.0287 22.3428 73.3636 21.6776 72.3659 21.6776H65.7143C64.7165 21.6776 64.0514 22.3428 64.0514 23.3405V33.3179C64.0514 34.3156 64.7165 34.9807 65.7143 34.9807H72.3659C73.3636 34.9807 74.0287 34.3156 74.0287 33.3179V29.9921H77.0219L76.1905 43.6278C76.0242 45.2907 74.5276 46.621 72.8647 46.621H62.3885V45.9558C62.3885 45.2907 62.0559 44.7918 61.3907 44.4592C59.229 43.4615 56.9009 42.6301 54.2403 42.2975C53.9077 42.2975 53.7414 42.2975 53.4089 42.2975C52.4111 41.9649 51.5797 41.7986 50.5819 41.6323V37.1425C51.0808 36.8099 51.5797 36.6436 52.0785 36.3111C57.7324 32.3201 62.2222 28.4955 62.2222 20.0147V19.1833V18.3518C62.2222 13.3631 60.0604 8.37445 56.4021 5.04866C55.9032 4.54979 55.4043 4.05092 54.7392 3.71834C52.7437 2.22174 50.5819 1.224 48.2539 0.725135C46.7573 0.0599772 44.7618 -0.106312 42.9326 0.0599772C42.2675 0.0599772 41.7686 0.226267 41.2697 0.226267C41.1034 0.226267 40.7709 0.392556 40.6046 0.392556C40.272 0.392556 39.9394 0.558845 39.6068 0.558845C39.2743 0.558845 38.9417 0.725135 38.7754 0.891424C38.6091 0.891424 38.2765 1.05771 38.1102 1.05771C37.7777 1.224 37.4451 1.224 37.1125 1.39029C36.9462 1.39029 36.7799 1.55658 36.4473 1.55658C36.1148 1.72287 35.7822 1.88916 35.4496 2.05545C35.2833 2.22174 35.117 2.22174 34.9507 2.38803C34.6182 2.55432 34.2856 2.72061 33.953 3.05319C33.7867 3.21948 33.6204 3.21948 33.6204 3.38576C33.4541 3.55205 33.2878 3.55205 33.2878 3.71834C24.9734 2.22174 17.6566 8.70702 17.6566 16.8552V41.7986C17.6566 42.7963 18.3218 43.4615 19.3195 43.4615C25.8048 43.4615 31.7912 40.9672 36.4473 36.6436C36.7799 36.9762 37.2788 37.1425 37.6114 37.3088V41.7986C36.6136 41.9649 35.7822 42.1312 34.7844 42.4638C34.4519 42.2975 34.2856 42.2975 33.953 42.4638C31.4587 42.9626 28.9643 43.6278 26.8026 44.6255C26.3037 44.9581 25.8048 45.457 25.8048 46.1221C19.9847 52.2748 15.8275 62.5848 15.8275 71.7307C15.8275 76.2205 15.9937 81.5418 17.3241 85.0338H14.1646V81.7081C14.1646 80.7103 13.4994 80.0452 12.5017 80.0452H5.85009C4.85235 80.0452 4.18719 80.7103 4.18719 81.7081V91.6854C4.18719 92.6832 4.85235 93.3483 5.85009 93.3483H12.5017C13.4994 93.3483 14.1646 92.6832 14.1646 91.6854V88.3596H20.3173H23.6431C21.8139 92.018 20.8161 96.0089 20.8161 99.9999H24.1419C24.1419 97.173 24.8071 94.346 25.8048 91.6854C25.8048 92.6832 26.47 93.3483 27.4677 93.3483H34.1193C35.117 93.3483 35.7822 92.6832 35.7822 91.6854V85.0338H56.5684L57.5661 86.1979C60.7256 90.0225 62.3885 94.8449 62.3885 99.8336H65.7143C65.7143 94.0135 63.7188 88.5259 60.2267 84.0361L58.8964 82.3732L58.2313 80.3777C56.7346 75.7216 56.9009 70.733 58.7301 66.0769L58.8964 65.9106C61.0582 65.0791 62.5548 63.2499 62.5548 61.2545L80.514 57.4298C83.5072 56.7647 85.8353 54.104 85.8353 50.9445V33.3179C85.8353 34.3156 86.5005 34.9807 87.4982 34.9807H94.1498C95.1475 34.9807 95.8127 34.3156 95.8127 33.3179V23.3405C95.6464 22.3428 94.9812 21.6776 93.9835 21.6776ZM70.703 31.655H67.3772V25.0034H70.703V31.655ZM10.8388 89.8562H7.51298V83.2047H10.8388V89.8562ZM50.2494 33.6504C49.5842 33.983 49.0853 34.3156 48.4202 34.6482C47.755 34.9807 47.0899 35.147 46.4247 35.3133H46.2584C45.9258 35.3133 45.5933 35.4796 45.2607 35.4796H45.0944C44.4292 35.4796 43.7641 35.4796 43.2652 35.4796H43.0989C42.7663 35.4796 42.4338 35.3133 42.1012 35.3133H41.9349C41.2697 35.147 40.6046 34.9807 39.9394 34.6482C39.2743 34.3156 38.6091 33.983 38.1102 33.6504C37.7777 33.4841 37.4451 33.1516 37.1125 32.9853C36.6136 32.6527 35.9485 32.1538 35.4496 31.8212C35.2833 31.655 35.117 31.4887 34.9507 31.3224C34.6182 30.9898 34.2856 30.6572 33.953 30.4909C33.6204 30.3246 33.4541 29.9921 33.1215 29.8258C32.9553 29.6595 32.6227 29.3269 32.4564 29.1606C32.1238 28.828 31.9575 28.4955 31.6249 28.1629C31.4587 27.9966 31.2924 27.8303 31.1261 27.664C30.9598 27.3314 30.6272 26.9989 30.4609 26.6663C30.2946 26.5 30.2946 26.3337 30.1283 26.1674C29.9621 25.8348 29.7958 25.336 29.6295 25.0034C29.6295 24.8371 29.4632 24.6708 29.4632 24.5045C29.2969 24.0056 29.2969 23.6731 29.1306 23.1742C29.1306 23.0079 28.9643 22.8416 28.9643 22.6753C29.1306 21.5113 29.1306 20.8461 29.1306 20.0147V18.5181L48.7528 15.026L58.8964 20.181C59.0627 26.3337 56.2358 29.4932 50.2494 33.6504ZM36.1148 5.54753C36.2811 5.38124 36.6136 5.38124 36.7799 5.21495C36.9462 5.04866 37.1125 5.04866 37.2788 4.88237C37.4451 4.71608 37.6114 4.71608 37.9439 4.54979C38.1102 4.3835 38.2765 4.3835 38.6091 4.21721C38.7754 4.21721 38.9417 4.05092 39.2743 4.05092C39.4405 4.05092 39.7731 3.88463 39.9394 3.88463C40.1057 3.88463 40.272 3.71834 40.4383 3.71834C40.7709 3.71834 40.9372 3.55205 41.2697 3.55205C41.436 3.55205 41.6023 3.55205 41.7686 3.38576C42.2675 3.38576 42.6 3.21948 43.0989 3.21948C47.2561 2.8869 51.2471 4.3835 54.4066 7.21042C54.7392 7.543 55.0718 7.87558 55.4043 8.20816C55.5706 8.37444 55.5706 8.37444 55.7369 8.54073C55.9032 8.87331 56.0695 9.0396 56.4021 9.37218C56.5684 9.53847 56.5684 9.70476 56.7346 9.87105C56.9009 10.2036 57.0672 10.3699 57.2335 10.7025C57.3998 10.8688 57.3998 11.0351 57.5661 11.2014C57.7324 11.5339 57.8987 11.7002 57.8987 12.0328C57.8987 12.1991 58.065 12.3654 58.065 12.5317C58.2312 12.8643 58.3975 13.1968 58.3975 13.5294C58.3975 13.6957 58.3975 13.6957 58.5638 13.862C58.7301 14.3609 58.8964 14.6934 58.8964 15.1923C58.8964 15.3586 58.8964 15.5249 58.8964 15.5249C58.8964 15.8575 59.0627 16.0238 59.0627 16.3563L49.9168 11.8665C49.5842 11.7002 49.4179 11.7002 49.0853 11.7002C48.919 11.7002 48.919 11.7002 48.7528 11.7002L29.4632 15.1923C29.4632 15.026 29.6295 14.6934 29.6295 14.5272C29.6295 14.1946 29.7958 14.0283 29.7958 13.6957C29.7958 13.5294 29.9621 13.3631 29.9621 13.0305C30.1283 12.698 30.2946 12.3654 30.2946 12.0328C30.2946 11.8665 30.4609 11.8665 30.4609 11.7002C30.6272 11.2014 30.9598 10.8688 31.1261 10.3699C31.1261 10.3699 31.1261 10.3699 31.1261 10.2036C31.4587 9.70476 31.6249 9.37218 31.9575 9.0396C32.6227 8.20816 33.4541 7.37671 34.2856 6.71155C34.6182 6.37897 35.117 6.04639 35.6159 5.88011C35.9485 5.71382 36.1148 5.71382 36.1148 5.54753ZM20.8161 16.6889C20.8161 11.5339 24.8071 7.21042 29.7958 6.71155C29.6295 7.04413 29.2969 7.37671 29.1306 7.543L28.9643 7.70929C28.6317 8.04187 28.4654 8.54073 28.2992 8.87331C28.2992 8.87331 28.2992 9.0396 28.1329 9.0396C27.9666 9.70476 27.8003 10.0373 27.4677 10.5362V10.7025C27.3014 11.2014 27.1351 11.5339 26.9688 12.0328V12.1991C26.8026 12.5317 26.6363 13.0305 26.6363 13.3631C26.6363 13.5294 26.6363 13.6957 26.47 13.862C26.47 14.1946 26.3037 14.5272 26.3037 14.8597C26.3037 15.1923 26.3037 15.3586 26.1374 15.6912C26.1374 16.0238 26.1374 16.19 25.9711 16.5226C25.9711 17.0215 25.9711 17.6866 25.9711 18.1855V19.8484C25.9711 20.5136 25.9711 21.1787 26.1374 21.8439C26.1374 22.0102 26.1374 22.1765 26.1374 22.509C26.1374 23.0079 26.3037 23.6731 26.47 24.1719C26.47 24.3382 26.6363 24.6708 26.6363 24.8371C26.8026 25.1697 26.8026 25.5023 26.9688 25.8348C26.9688 26.0011 27.1351 26.3337 27.3014 26.5C27.4677 26.9989 27.8003 27.4977 27.9666 27.8303C27.9666 27.9966 28.1329 28.1629 28.2992 28.3292C29.6295 30.6572 31.6249 32.4864 33.7867 34.3156C30.2946 37.4751 25.8048 39.3043 21.1487 39.8031C20.8161 39.9694 20.8161 16.6889 20.8161 16.6889ZM39.108 44.9581C40.1057 44.9581 40.7709 44.2929 40.7709 43.2952V38.4728C40.9372 38.4728 40.9372 38.4728 41.1034 38.4728C41.6023 38.6391 41.9349 38.6391 42.4338 38.6391C42.6 38.6391 42.6 38.6391 42.7663 38.6391C43.2652 38.6391 43.5978 38.8054 44.0966 38.8054C44.5955 38.8054 44.9281 38.8054 45.427 38.6391C45.5933 38.6391 45.5933 38.6391 45.7595 38.6391C46.2584 38.6391 46.591 38.4728 47.0899 38.4728C47.2562 38.4728 47.2561 38.4728 47.4224 38.4728V43.2952C47.4224 44.2929 48.0876 44.9581 49.0853 44.9581C50.2494 44.9581 51.2471 45.1244 52.4111 45.457V48.1176L44.0966 49.9468L35.7822 48.1176V45.457C36.9462 45.1244 37.9439 44.9581 39.108 44.9581ZM29.4632 65.9106C31.1261 70.4004 31.1261 75.2228 29.6295 79.8789H27.4677C27.1351 79.8789 26.9688 79.8789 26.8026 80.0452C26.6363 75.5553 27.1351 69.2364 28.1329 65.2454C28.4654 65.578 28.9643 65.7443 29.4632 65.9106ZM19.1532 71.5644C19.1532 64.5803 21.8139 56.7647 25.8048 51.1108V61.2545C23.6431 66.2431 22.8116 79.2137 23.6431 84.2024L23.8093 84.8676H20.9824C20.151 83.5372 19.1532 80.0452 19.1532 71.5644ZM32.4564 89.8562H29.1306V83.2047H30.7935H32.4564V89.8562ZM35.7822 81.5418C35.7822 80.544 35.117 79.8789 34.1193 79.8789H33.1215C34.4519 75.5554 34.4519 70.8992 33.1215 66.5757H55.0718C53.5751 71.3981 53.5751 76.7194 55.238 81.5418H35.7822ZM59.0627 61.2545C59.0627 62.0859 57.5661 63.2499 55.7369 63.2499H32.4564C30.6272 63.2499 29.1306 62.2522 29.1306 61.2545V46.9536C30.1283 46.4547 31.2924 46.1221 32.4564 45.7896V49.2816C32.4564 50.1131 32.9553 50.7782 33.7867 50.9445L43.7641 53.1063C43.9304 53.1063 44.2629 53.1063 44.4292 53.1063L54.4066 50.9445C55.238 50.7782 55.7369 50.1131 55.7369 49.2816V45.7896C56.9009 46.1221 58.065 46.4547 59.0627 46.9536V48.2839V59.9241V61.2545ZM82.3432 50.9445C82.3432 52.4411 81.1792 53.9377 79.6826 54.2703L62.3885 57.9287V49.9468H72.8647C76.3568 49.9468 79.1837 47.2862 79.5163 43.7941L80.514 26.6663H82.3432V50.9445ZM92.3206 31.655H88.9948V25.0034H92.3206V31.655Z" fill="#222426"/>
</svg>
